<svg width="16" height="16" viewBox="0 0 16 16" fill="none"
    xmlns="http://www.w3.org/2000/svg">
    <rect width="16" height="16" fill="white" />
    <rect x="0.75" y="0.75" width="14.5" height="14.5" stroke="#DB1818" stroke-width="1.5" />
    <path
        d="M4.28009 11.5693H2.38068V4.43066H6.59943V5.97852H4.28009V7.34082H6.41876V8.88867H4.28009V11.5693Z"
        fill="#DB1818" />
    <path
        d="M8.1213 4.43066H10.6115C11.6434 4.43066 12.3791 4.58366 12.8186 4.88965C13.258 5.19564 13.4777 5.63509 13.4777 6.20801C13.4777 6.52051 13.4208 6.78581 13.3068 7.00391C13.1962 7.22201 13.0546 7.39453 12.882 7.52148C12.7128 7.64844 12.5386 7.7347 12.3596 7.78027V7.8291C12.5549 7.87793 12.7486 7.95931 12.9406 8.07324C13.136 8.18392 13.2971 8.35156 13.424 8.57617C13.5542 8.79753 13.6193 9.09863 13.6193 9.47949C13.6193 9.91243 13.5087 10.2852 13.2873 10.5977C13.0692 10.9102 12.7567 11.151 12.3498 11.3203C11.9429 11.4863 11.4595 11.5693 10.8996 11.5693H8.1213V4.43066ZM10.05 7.16992H10.6311C10.9501 7.16992 11.1747 7.10482 11.3049 6.97461C11.4351 6.84115 11.5002 6.68001 11.5002 6.49121C11.5002 6.2959 11.4253 6.14779 11.2756 6.04688C11.1291 5.94271 10.9012 5.89062 10.592 5.89062H10.05V7.16992ZM10.05 8.58105V10.0801H10.7287C11.064 10.0801 11.2984 10.0085 11.4318 9.86523C11.5653 9.71875 11.632 9.53646 11.632 9.31836C11.632 9.19141 11.6027 9.07259 11.5442 8.96191C11.4888 8.84798 11.3928 8.75684 11.2561 8.68848C11.1193 8.61686 10.9305 8.58105 10.6897 8.58105H10.05Z"
        fill="#DB1818" />
</svg>